<svg xmlns="http://www.w3.org/2000/svg" width="128" height="128">
  <g transform="translate(64 64)" stroke-linecap="round" stroke-width="13" stroke="black">
    <line x1="0" y1="35" x2="0" y2="55" transform="rotate(180)" style="animation-delay: -825ms" />
    <line x1="0" y1="35" x2="0" y2="55" transform="rotate(210)" style="animation-delay: -750ms" />
    <line x1="0" y1="35" x2="0" y2="55" transform="rotate(240)" style="animation-delay: -675ms" />
    <line x1="0" y1="35" x2="0" y2="55" transform="rotate(270)" style="animation-delay: -600ms" />
    <line x1="0" y1="35" x2="0" y2="55" transform="rotate(300)" style="animation-delay: -525ms" />
    <line x1="0" y1="35" x2="0" y2="55" transform="rotate(330)" style="animation-delay: -450ms" />
    <line x1="0" y1="35" x2="0" y2="55" transform="rotate(0)" style="animation-delay: -375ms" />
    <line x1="0" y1="35" x2="0" y2="55" transform="rotate(30)" style="animation-delay: -300ms" />
    <line x1="0" y1="35" x2="0" y2="55" transform="rotate(60)" style="animation-delay: -225ms" />
    <line x1="0" y1="35" x2="0" y2="55" transform="rotate(90)" style="animation-delay: -150ms" />
    <line x1="0" y1="35" x2="0" y2="55" transform="rotate(120)" style="animation-delay: -75ms" />
    <line x1="0" y1="35" x2="0" y2="55" transform="rotate(150)" style="animation-delay: -0ms" />
  </g>
  <style>
    @keyframes s {
      0% { opacity: 0.8 }
      80%,100% { opacity: 0.1 }
    }
    line {
      opacity: 0.4;
      animation-name: s;
      animation-duration: 900ms;
      animation-iteration-count: infinite;
      animation-timing-function: ease-out;
    }
  </style>
</svg>
